<svg xmlns="http://www.w3.org/2000/svg" xmlns:xlink="http://www.w3.org/1999/xlink" viewBox="0 0 500 500"><defs><style>.cls-1{fill:none;}.cls-2{fill:url(#radial-gradient);}.cls-3{fill:url(#radial-gradient-2);}.cls-4{fill:url(#radial-gradient-3);}.cls-5{fill:url(#radial-gradient-4);}.cls-6{fill:#fff;}</style><radialGradient id="radial-gradient" cx="-285.04" cy="461.92" r="250.02" gradientTransform="matrix(0.82, -1.8, -1.68, -0.76, 1033.11, 301.8)" gradientUnits="userSpaceOnUse"><stop offset="0" stop-color="#fd5"/><stop offset="0.1" stop-color="#fd5"/><stop offset="0.5" stop-color="#ff543e"/><stop offset="1" stop-color="#c837ab"/></radialGradient><radialGradient id="radial-gradient-2" cx="-6747.21" cy="5806.36" r="250.02" gradientTransform="matrix(-0.2, 0.86, 3.56, 0.83, -21978.26, 938.11)" gradientUnits="userSpaceOnUse"><stop offset="0" stop-color="#3771c8"/><stop offset="0.13" stop-color="#3771c8"/><stop offset="1" stop-color="#60f" stop-opacity="0"/></radialGradient><radialGradient id="radial-gradient-3" cx="-285.04" cy="461.92" r="250.02" gradientTransform="matrix(0, -1.98, -1.84, 0, 984.52, -26.43)" xlink:href="#radial-gradient"/><radialGradient id="radial-gradient-4" cx="-6747.21" cy="5806.36" r="250.02" gradientTransform="matrix(0.17, 0.87, 3.58, -0.72, -19707.46, 10061.67)" xlink:href="#radial-gradient-2"/></defs><title>ig-logo</title><g id="Layer_2" data-name="Layer 2"><g id="Layer_1-2" data-name="Layer 1"><polygon class="cls-1" points="250 500 250 500 250 500 250 500"/><circle class="cls-2" cx="249.97" cy="250.02" r="61.54" transform="translate(-80.97 125.63) rotate(-24.41)"/><circle class="cls-3" cx="249.97" cy="250.02" r="61.54" transform="translate(-80.97 125.63) rotate(-24.41)"/><path class="cls-4" d="M324.57,400.21c18-.82,27.78-3.82,34.28-6.36a61.24,61.24,0,0,0,35-35c2.52-6.5,5.53-16.27,6.35-34.27.89-19.46,1.08-25.31,1.08-74.58s-.19-55.12-1.08-74.58c-.81-18-3.83-27.78-6.35-34.28a61.2,61.2,0,0,0-35-35c-6.51-2.53-16.28-5.53-34.28-6.36-19.46-.88-25.31-1.06-74.6-1.06H233.4v0c-34.41,0-41,.27-58,1-18,.83-27.78,3.83-34.28,6.37A61.16,61.16,0,0,0,106,141.07c-2.53,6.51-5.54,16.28-6.36,34.28-.89,19.46-1.06,25.28-1.06,74.58s.17,55.15,1.06,74.62c.82,18,3.83,27.77,6.36,34.27a61.13,61.13,0,0,0,35.05,35c6.51,2.53,16.28,5.53,34.28,6.36,19.46.89,25.31,1.08,74.61,1.08S305.11,401.1,324.57,400.21Zm23.95-270.89h0a22.16,22.16,0,1,1-22.15,22.16A22.16,22.16,0,0,1,348.52,129.31ZM155.15,250A94.81,94.81,0,0,1,250,155.21h0A94.81,94.81,0,1,1,155.15,250Z"/><path class="cls-5" d="M324.57,400.21c18-.82,27.78-3.82,34.28-6.36a61.24,61.24,0,0,0,35-35c2.52-6.5,5.53-16.27,6.35-34.27.89-19.46,1.08-25.31,1.08-74.58s-.19-55.12-1.08-74.58c-.81-18-3.83-27.78-6.35-34.28a61.2,61.2,0,0,0-35-35c-6.51-2.53-16.28-5.53-34.28-6.36-19.46-.88-25.31-1.06-74.6-1.06H233.4v0c-34.41,0-41,.27-58,1-18,.83-27.78,3.83-34.28,6.37A61.16,61.16,0,0,0,106,141.07c-2.53,6.51-5.54,16.28-6.36,34.28-.89,19.46-1.06,25.28-1.06,74.58s.17,55.15,1.06,74.62c.82,18,3.83,27.77,6.36,34.27a61.13,61.13,0,0,0,35.05,35c6.51,2.53,16.28,5.53,34.28,6.36,19.46.89,25.31,1.08,74.61,1.08S305.11,401.1,324.57,400.21Zm23.95-270.89h0a22.16,22.16,0,1,1-22.15,22.16A22.16,22.16,0,0,1,348.52,129.31ZM155.15,250A94.81,94.81,0,0,1,250,155.21h0A94.81,94.81,0,1,1,155.15,250Z"/><path class="cls-4" d="M500,250C500,111.93,388.07,0,250,0h0C111.93,0,0,111.93,0,250S111.93,500,250,500h0C388.07,500,500,388.07,500,250ZM129,425a94.52,94.52,0,0,1-54-54c-4.56-11.74-7.67-25.15-8.57-44.81s-1.12-26-1.12-76.11.23-56.44,1.11-76.13,4-33.07,8.58-44.81a94.42,94.42,0,0,1,54-54c11.73-4.56,25.15-7.67,44.81-8.57s26-1.12,76.1-1.12h0c50.13,0,56.4.22,76.09,1.12s33.08,4,44.85,8.57a94.39,94.39,0,0,1,54,54c4.54,11.74,7.66,25.16,8.58,44.81s1.12,26,1.12,76.13-.23,56.42-1.12,76.12-4,33.06-8.58,44.81a94.54,94.54,0,0,1-54,54c-11.75,4.56-25.18,7.68-44.83,8.58s-26,1.11-76.12,1.11-56.42-.22-76.12-1.11S140.75,429.52,129,425Z"/><path class="cls-5" d="M500,250C500,111.93,388.07,0,250,0h0C111.93,0,0,111.93,0,250S111.93,500,250,500h0C388.07,500,500,388.07,500,250ZM129,425a94.52,94.52,0,0,1-54-54c-4.56-11.74-7.67-25.15-8.57-44.81s-1.12-26-1.12-76.11.23-56.44,1.11-76.13,4-33.07,8.58-44.81a94.42,94.42,0,0,1,54-54c11.73-4.56,25.15-7.67,44.81-8.57s26-1.12,76.1-1.12h0c50.13,0,56.4.22,76.09,1.12s33.08,4,44.85,8.57a94.39,94.39,0,0,1,54,54c4.54,11.74,7.66,25.16,8.58,44.81s1.12,26,1.12,76.13-.23,56.42-1.12,76.12-4,33.06-8.58,44.81a94.54,94.54,0,0,1-54,54c-11.75,4.56-25.18,7.68-44.83,8.58s-26,1.11-76.12,1.11-56.42-.22-76.12-1.11S140.75,429.52,129,425Z"/><polygon class="cls-6" points="249.96 155.21 249.96 155.21 249.97 155.21 249.96 155.21"/><path class="cls-6" d="M348.52,173.62a22.16,22.16,0,1,0,0-44.31h0a22.15,22.15,0,1,0,0,44.3Z"/><path class="cls-6" d="M249.91,65.39h0Z"/><path class="cls-6" d="M344.77,250a94.81,94.81,0,1,0-94.8,94.8A94.81,94.81,0,0,0,344.77,250Zm-156.35,0A61.55,61.55,0,1,1,250,311.56,61.54,61.54,0,0,1,188.42,250Z"/><path class="cls-6" d="M326.06,433.54c19.65-.9,33.08-4,44.83-8.58a94.54,94.54,0,0,0,54-54c4.54-11.75,7.66-25.17,8.58-44.81s1.12-26,1.12-76.12-.23-56.43-1.12-76.13-4-33.07-8.58-44.81a94.39,94.39,0,0,0-54-54c-11.77-4.56-25.19-7.67-44.85-8.57s-26-1.12-76.09-1.12-56.41.22-76.1,1.12-33.08,4-44.81,8.57a94.42,94.42,0,0,0-54,54c-4.58,11.74-7.69,25.16-8.58,44.81s-1.11,26-1.11,76.13.22,56.42,1.12,76.11,4,33.07,8.57,44.81a94.52,94.52,0,0,0,54,54c11.75,4.56,25.17,7.68,44.82,8.58s26,1.11,76.12,1.11S306.36,434.43,326.06,433.54Zm-185-39.69a61.13,61.13,0,0,1-35.05-35c-2.53-6.5-5.54-16.27-6.36-34.27-.89-19.47-1.06-25.31-1.06-74.62s.17-55.12,1.06-74.58c.82-18,3.83-27.77,6.36-34.28a61.16,61.16,0,0,1,35.05-35c6.5-2.54,16.28-5.54,34.28-6.37,17-.76,23.63-1,58-1v0H250c49.29,0,55.14.18,74.6,1.06,18,.83,27.77,3.83,34.28,6.36a61.2,61.2,0,0,1,35,35c2.52,6.5,5.54,16.27,6.35,34.28.89,19.46,1.08,25.31,1.08,74.58s-.19,55.12-1.08,74.58c-.82,18-3.83,27.77-6.35,34.27a61.24,61.24,0,0,1-35,35c-6.5,2.54-16.28,5.54-34.28,6.36-19.46.89-25.31,1.08-74.6,1.08s-55.15-.19-74.61-1.08C157.36,399.38,147.59,396.38,141.08,393.85Z"/></g></g></svg>