<svg xmlns="http://www.w3.org/2000/svg" width="559.637" height="177.205" viewBox="0 0 559.637 177.205"><g transform="translate(21.003 78.104)"><g transform="translate(-21.003 -78.104)"><path d="M19.126,246.888c.672.654,1.356,1.315,2.054,1.965q-3.436,3.543-6.329,7.056C4.237,268.811.443,280.175,4.429,287.084s15.727,9.3,32.208,6.561A151.919,151.919,0,0,0,70.9,283.083q2.239-.961,4.489-1.991c1.108-.506,2.217-1.02,3.325-1.552,1.452-.691,2.9-1.408,4.356-2.143q5.641-2.856,11.283-6.111a209.191,209.191,0,0,0,34.359-24.517q1.053.979,2.062,1.965a210.461,210.461,0,0,1-34.99,25.012q-4.688,2.708-9.391,5.143-2.183,1.134-4.359,2.217-1.659.82-3.325,1.6-2.25,1.064-4.485,2.05c-13.064,5.793-25.78,9.831-37.107,11.715-17.974,2.989-30.454.17-35.138-7.943s-.887-20.32,10.688-34.4Q15.624,250.509,19.126,246.888Z" transform="translate(-0.01 -155.601)"/><path d="M197.3,305.2c-1.518,14.213-4.378,27.243-8.409,37.994-6.4,17.061-15.081,26.456-24.45,26.456s-18.048-9.4-24.45-26.471q-1.633-4.367-3.011-9.214-.517-1.8-.986-3.658c.9-.255,1.814-.517,2.73-.8q.469,1.847.983,3.661,1.348,4.733,2.956,9.011c5.859,15.657,13.8,24.642,21.783,24.642s15.919-8.97,21.8-24.613a151.979,151.979,0,0,0,7.984-34.953Q195.763,306.234,197.3,305.2Z" transform="translate(-85.748 -192.445)"/><path d="M182.232,35.67c-.9.255-1.814.517-2.727.794-.9-3.151-1.88-6.162-2.956-9.007-5.859-15.635-13.8-24.616-21.775-24.616s-15.923,8.981-21.8,24.616A151.715,151.715,0,0,0,125,62.407q-.292,2.416-.525,4.884c-.111,1.208-.218,2.42-.307,3.643q-.2,2.4-.325,4.843c-.233,4.2-.347,8.5-.347,12.827a207.722,207.722,0,0,0,4.064,42c-.916.284-1.825.55-2.73.805A210.866,210.866,0,0,1,120.66,88.6q0-5.412.244-10.714.111-2.457.273-4.873c.081-1.23.17-2.453.277-3.665q.2-2.475.462-4.91c1.518-14.209,4.378-27.239,8.409-37.994C136.724,9.4,145.4,0,154.775,0s18.048,9.4,24.45,26.456Q180.858,30.83,182.232,35.67Z" transform="translate(-76.081 0)"/><circle cx="6.318" cy="6.318" r="6.318" transform="translate(98.359 27.217)"/><path d="M225.14,108.141c13.064-5.793,25.78-9.831,37.107-11.715,17.974-2.989,30.454-.17,35.138,7.943s.883,20.32-10.692,34.4q-2.956,3.6-6.473,7.215-1.3,1.349-2.675,2.686c-.669-.658-1.356-1.312-2.054-1.965q1.382-1.345,2.679-2.686,3.425-3.532,6.329-7.056c10.614-12.9,14.408-24.265,10.422-31.174s-15.727-9.3-32.208-6.561a152.3,152.3,0,0,0-34.259,10.563C227.349,109.231,226.241,108.68,225.14,108.141Z" transform="translate(-141.961 -60.069)"/><circle cx="6.318" cy="6.318" r="6.318" transform="translate(10.686 89.473)"/><path d="M41.343,165.05c-11.553-8.416-21.395-17.423-28.7-26.29C1.066,124.7-2.732,112.485,1.953,104.368s17.165-10.932,35.138-7.943c3.066.514,6.236,1.179,9.487,2q1.81.454,3.661.975-.347,1.363-.676,2.76-1.847-.521-3.665-.975c-3.177-.8-6.281-1.456-9.273-1.954-16.481-2.741-28.218-.347-32.208,6.561s-.192,18.273,10.422,31.174a151.47,151.47,0,0,0,26.279,24.384C41.18,162.593,41.258,163.823,41.343,165.05Z" transform="translate(0.003 -60.068)"/><path d="M206.238,209.286c.233-.909.462-1.847.676-2.76q4.77,1.2,9.277,1.951c16.481,2.741,28.218.369,32.208-6.561s.192-18.273-10.422-31.174A151.746,151.746,0,0,0,211.7,146.358q-1.943-1.456-3.968-2.893-1.478-1.053-3-2.091-1.984-1.363-4.031-2.7-5.291-3.462-10.936-6.72a207.994,207.994,0,0,0-38.4-17.49c.214-.935.436-1.847.669-2.767a211.259,211.259,0,0,1,39.161,17.8q4.685,2.7,9.148,5.564,2.073,1.319,4.086,2.675,1.533,1.027,3.033,2.069,2.047,1.419,4.02,2.856c11.549,8.42,21.4,17.412,28.7,26.279,11.575,14.072,15.373,26.29,10.692,34.4s-17.165,10.932-35.138,7.943Q211.122,210.516,206.238,209.286Z" transform="translate(-95.439 -70.433)"/><circle cx="6.318" cy="6.318" r="6.318" transform="translate(109.439 132.114)"/><path d="M78.946,195.728c-1.06,0-2.128-.624-3.355-1.965l-.044-.048A81.111,81.111,0,0,1,61.671,176.17c-5.028-8.915-11.021-23.789-11.021-44.023s5.989-35.168,11.013-44.138C67.183,78.152,72.78,73.1,73.016,72.887a4.323,4.323,0,0,1,6.772,1.345c.137.281,13.67,28.311,28.817,55.72,8.867,16.1,16.592,28.9,22.906,38.053a117.36,117.36,0,0,0,7.88,10.345,5.021,5.021,0,0,0,3.746,1.847,4.874,4.874,0,0,0,3.957-2.217,66.5,66.5,0,0,0,3.949-6.244c4.681-8.379,10.906-21.6,10.906-39.59,0-18.232-5.316-31.639-9.776-39.675a55.878,55.878,0,0,0-9.716-13.149c-1.917-1.729-1.208-5.793.259-7.426a2.656,2.656,0,0,1,2.017-.957c1.323,0,2.427.99,3.4,1.847l.1.085c.236.211,5.834,5.265,11.353,15.121,5.024,8.97,11.01,23.907,11.01,44.138a92.2,92.2,0,0,1-3.779,26.231,125.191,125.191,0,0,1-6.916,17.885l-.288.624c-4.8,10.466-8.627,18.735-14.257,18.735-2.715,0-5.017-1.363-7.954-4.7-2.715-3.089-6.04-7.91-11.083-15.21l-1.936-2.808c-6.488-9.4-14.353-22.451-23.379-38.792-8.56-15.517-16.581-31.156-21.8-41.541a5.7,5.7,0,0,0-10.064-.24l-.078.14c-4.459,8.035-9.776,21.428-9.776,39.675a79.487,79.487,0,0,0,10.533,39.867,69.442,69.442,0,0,0,11.486,15.262,1.73,1.73,0,0,1,.144.144c1.7,1.914,1.2,3.912.5,5.612C81.658,193.77,80.849,195.728,78.946,195.728Z" transform="translate(-31.936 -44.731)" fill="#fff"/><path d="M142.436,69.966c.842,0,1.744.835,2.608,1.607.229.207,5.667,5.117,11.083,14.778,4.943,8.833,10.84,23.545,10.84,43.488s-6.41,34.525-10.577,43.573c-4.614,10.016-8.453,18.58-13.33,18.58s-8.379-5.512-19.865-22.141c-6.458-9.358-14.3-22.374-23.3-38.692-8.442-15.3-16.359-30.712-21.8-41.493a7.02,7.02,0,0,0-12.421-.292l-.081.14c-4.537,8.176-9.942,21.8-9.942,40.325,0,35.593,22.322,55.96,22.5,56.156,1.164,1.315.935,2.608.27,4.219-.425,1.031-.946,1.873-1.784,1.873-.6,0-1.36-.432-2.368-1.533l-.126-.126a80.957,80.957,0,0,1-13.607-17.22c-4.947-8.778-10.843-23.427-10.843-43.369S55.6,95.184,60.525,86.351C65.938,76.69,71.376,71.78,71.609,71.573a3,3,0,0,1,1.991-.757,3.092,3.092,0,0,1,.584.055,3.007,3.007,0,0,1,2.11,1.633c.133.281,13.633,28.218,28.843,55.787,8.907,16.141,16.625,28.983,22.987,38.175a116.005,116.005,0,0,0,7.976,10.463,6.314,6.314,0,0,0,4.74,2.3,6.209,6.209,0,0,0,5.043-2.778,68.1,68.1,0,0,0,4.031-6.369c4.533-8.128,11.083-21.727,11.083-40.24s-5.409-32.142-9.942-40.325a57.457,57.457,0,0,0-9.975-13.485c-1.227-1.108-.739-4.323.351-5.542a1.352,1.352,0,0,1,1.023-.514m0-2.667a4.016,4.016,0,0,0-3.011,1.4,7.782,7.782,0,0,0-1.718,4.352,5.791,5.791,0,0,0,1.559,4.954,54.635,54.635,0,0,1,9.443,12.805c4.382,7.9,9.606,21.081,9.606,39.028,0,17.678-6.125,30.69-10.732,38.94a65.3,65.3,0,0,1-3.872,6.114,3.57,3.57,0,0,1-2.871,1.663,3.694,3.694,0,0,1-2.741-1.393,115.769,115.769,0,0,1-7.784-10.219c-6.281-9.118-13.984-21.886-22.847-37.946C92.361,99.621,78.824,71.61,78.691,71.344a5.689,5.689,0,0,0-3.983-3.089,5.542,5.542,0,0,0-1.108-.111,5.653,5.653,0,0,0-3.768,1.437A43.069,43.069,0,0,0,65.964,73.7a73.52,73.52,0,0,0-7.758,11.346C53.1,94.146,47,109.319,47,129.839s6.1,35.611,11.205,44.681a82.75,82.75,0,0,0,14.109,17.848c.942,1.031,2.416,2.39,4.33,2.39a4.023,4.023,0,0,0,3.081-1.478,7.455,7.455,0,0,0,1.171-2.032,8.5,8.5,0,0,0,.739-3.255,5.6,5.6,0,0,0-1.478-3.754c-.078-.085-.14-.148-.218-.222a68.03,68.03,0,0,1-11.253-14.959,78.2,78.2,0,0,1-10.345-39.206c0-17.948,5.228-31.13,9.606-39.028l.078-.137a4.363,4.363,0,0,1,7.7.192c5.228,10.4,13.256,26.05,21.827,41.581,9.044,16.4,16.935,29.489,23.449,38.921l1.936,2.8c5.058,7.341,8.4,12.192,11.168,15.332a18.949,18.949,0,0,0,4.223,3.776,8.837,8.837,0,0,0,4.725,1.367c4.182,0,7.068-3.739,8.867-6.55a111.1,111.1,0,0,0,6.591-12.96l.288-.624a126.71,126.71,0,0,0,6.986-18.066,96.293,96.293,0,0,0,2.738-12.266,94.448,94.448,0,0,0,1.108-14.357c0-20.519-6.081-35.681-11.183-44.792A73.521,73.521,0,0,0,150.693,73.7a43.068,43.068,0,0,0-3.868-4.119l-.1-.085c-1.108-.979-2.461-2.217-4.293-2.217Z" transform="translate(-29.635 -42.424)" fill="#fff"/><path d="M482.147,299.8v14.852h-1.958V302.8l-4.736,11.852h-1.736l-4.755-11.822v11.822H467V299.8h2.335l5.272,12.469,5.172-12.469Z" transform="translate(-294.467 -189.04)" fill="#fff"/><path d="M515.883,295.892a1.563,1.563,0,0,1,1.928,0,1.212,1.212,0,0,1,0,1.736,1.563,1.563,0,0,1-1.929,0,1.223,1.223,0,0,1,0-1.736Zm1.928,4.319v11.767H515.86V300.211Z" transform="translate(-325.062 -186.365)" fill="#fff"/><path d="M539.678,308.926a5.288,5.288,0,0,1,1.264,3.805v6.839h-1.947v-6.65a3.773,3.773,0,0,0-.9-2.7,3.218,3.218,0,0,0-2.442-.942,3.325,3.325,0,0,0-2.586,1.042,4.3,4.3,0,0,0-.964,3.029v6.221H530.15V307.8H532.1v2.786a4.016,4.016,0,0,1,1.6-2.217,4.633,4.633,0,0,1,2.645-.768A4.4,4.4,0,0,1,539.678,308.926Z" transform="translate(-334.286 -193.957)" fill="#fff"/><path d="M566.923,295.892a1.563,1.563,0,0,1,1.929,0,1.212,1.212,0,0,1,0,1.736,1.563,1.563,0,0,1-1.929,0,1.223,1.223,0,0,1,0-1.736Zm1.929,4.319v11.767H566.9V300.211Z" transform="translate(-357.245 -186.365)" fill="#fff"/><path d="M598.985,308.944a5.317,5.317,0,0,1,1.253,3.805v6.838h-1.947v-6.65a3.787,3.787,0,0,0-.85-2.656,3,3,0,0,0-2.324-.92,3.21,3.21,0,0,0-2.475,1.016,4.29,4.29,0,0,0-.931,2.989v6.221H589.76v-6.65a3.766,3.766,0,0,0-.857-2.656,3.007,3.007,0,0,0-2.313-.92,3.225,3.225,0,0,0-2.509.99,4.29,4.29,0,0,0-.931,2.989v6.247H581.2V307.821h1.951V310.5a3.8,3.8,0,0,1,1.533-2.132,4.784,4.784,0,0,1,5.143.022,4.13,4.13,0,0,1,1.574,2.239,4.285,4.285,0,0,1,1.648-2.217,4.566,4.566,0,0,1,2.616-.78A4.366,4.366,0,0,1,598.985,308.944Z" transform="translate(-366.476 -193.976)" fill="#fff"/><path d="M647.67,308.564a4.462,4.462,0,0,1,1.659,2.294v-3h1.951v11.767h-1.951v-3a4.463,4.463,0,0,1-1.659,2.294,4.859,4.859,0,0,1-2.889.853,5.312,5.312,0,0,1-2.786-.739,5.028,5.028,0,0,1-1.917-2.087,7.721,7.721,0,0,1,0-6.417,5.046,5.046,0,0,1,1.917-2.1,5.346,5.346,0,0,1,2.786-.739A4.858,4.858,0,0,1,647.67,308.564Zm-5.228,2.025a4.347,4.347,0,0,0-1.082,3.162,4.444,4.444,0,0,0,1.082,3.159,3.772,3.772,0,0,0,2.882,1.149,4.035,4.035,0,0,0,2.069-.536,3.72,3.72,0,0,0,1.422-1.511,4.768,4.768,0,0,0,.514-2.261,4.836,4.836,0,0,0-.513-2.272,3.628,3.628,0,0,0-1.422-1.511,4.064,4.064,0,0,0-2.069-.525A3.783,3.783,0,0,0,642.443,310.588Z" transform="translate(-403.162 -194.013)" fill="#fff"/><path d="M681.951,297.07v15.86H680V297.07Z" transform="translate(-428.774 -187.318)" fill="#fff"/><path d="M693.185,295.892a1.563,1.563,0,0,1,1.928,0,1.223,1.223,0,0,1,0,1.736,1.563,1.563,0,0,1-1.928,0,1.212,1.212,0,0,1,0-1.736Zm1.917,4.319v11.767h-1.951V300.211Z" transform="translate(-436.857 -186.365)" fill="#fff"/><path d="M713.586,308.781a4.348,4.348,0,0,1,1.478,2.793h-1.847a2.693,2.693,0,0,0-.868-1.722,2.823,2.823,0,0,0-1.984-.676,2.435,2.435,0,0,0-1.637.5,1.692,1.692,0,0,0-.591,1.36,1.4,1.4,0,0,0,.4,1.042,2.56,2.56,0,0,0,.983.6,15.988,15.988,0,0,0,1.618.44,15.908,15.908,0,0,1,2.113.61,3.325,3.325,0,0,1,1.371,1,2.812,2.812,0,0,1,.565,1.847,2.893,2.893,0,0,1-1.079,2.335,4.363,4.363,0,0,1-2.885.9,5.516,5.516,0,0,1-3.429-1.009,4.034,4.034,0,0,1-1.563-2.808h1.884a2.464,2.464,0,0,0,.935,1.736,3.358,3.358,0,0,0,2.172.665,2.283,2.283,0,0,0,1.578-.513,1.744,1.744,0,0,0,.565-1.352,1.478,1.478,0,0,0-.406-1.09,2.653,2.653,0,0,0-1-.624,15.767,15.767,0,0,0-1.651-.451,16.039,16.039,0,0,1-2.087-.6,3.188,3.188,0,0,1-1.33-.953,2.66,2.66,0,0,1-.547-1.77,2.956,2.956,0,0,1,1.108-2.387,4.541,4.541,0,0,1,2.978-.913,4.732,4.732,0,0,1,3.162,1.038Z" transform="translate(-445.314 -194.045)" fill="#fff"/><path d="M755.254,308.945a5.33,5.33,0,0,1,1.256,3.805v6.839H754.56v-6.65a3.8,3.8,0,0,0-.846-2.656,3.008,3.008,0,0,0-2.328-.92,3.21,3.21,0,0,0-2.475,1.016,4.29,4.29,0,0,0-.931,2.989v6.221h-1.951v-6.65a3.766,3.766,0,0,0-.857-2.656,3,3,0,0,0-2.313-.92,3.229,3.229,0,0,0-2.5,1.016,4.291,4.291,0,0,0-.931,2.989v6.221H737.48V307.822h1.951V310.5a3.8,3.8,0,0,1,1.533-2.132,4.784,4.784,0,0,1,5.143.022,4.13,4.13,0,0,1,1.574,2.239,4.285,4.285,0,0,1,1.648-2.217,4.567,4.567,0,0,1,2.616-.78,4.367,4.367,0,0,1,3.31,1.312Z" transform="translate(-465.019 -193.976)" fill="#fff"/><path d="M810.925,295.892a1.563,1.563,0,0,1,1.928,0,1.223,1.223,0,0,1,0,1.736,1.563,1.563,0,0,1-1.928,0,1.212,1.212,0,0,1,0-1.736Zm1.928,4.319v11.767H810.9V300.211Z" transform="translate(-511.098 -186.365)" fill="#fff"/><path d="M831.326,308.779a4.349,4.349,0,0,1,1.478,2.793h-1.847a2.693,2.693,0,0,0-.868-1.722,2.826,2.826,0,0,0-1.984-.676,2.434,2.434,0,0,0-1.637.5,1.692,1.692,0,0,0-.591,1.36,1.415,1.415,0,0,0,.4,1.042,2.586,2.586,0,0,0,.986.6,15.988,15.988,0,0,0,1.618.44,15.658,15.658,0,0,1,2.11.61,3.325,3.325,0,0,1,1.374,1,2.812,2.812,0,0,1,.565,1.847,2.886,2.886,0,0,1-1.083,2.335,4.348,4.348,0,0,1-2.882.9,5.516,5.516,0,0,1-3.429-1.009,4.034,4.034,0,0,1-1.563-2.808h1.858a2.464,2.464,0,0,0,.935,1.736,3.351,3.351,0,0,0,2.172.665,2.283,2.283,0,0,0,1.578-.514,1.744,1.744,0,0,0,.565-1.352,1.478,1.478,0,0,0-.406-1.09,2.653,2.653,0,0,0-1-.624,16.039,16.039,0,0,0-1.651-.451,16.3,16.3,0,0,1-2.091-.6,3.2,3.2,0,0,1-1.326-.953,2.66,2.66,0,0,1-.547-1.77,2.955,2.955,0,0,1,1.108-2.387,4.541,4.541,0,0,1,2.978-.913,4.732,4.732,0,0,1,3.188,1.038Z" transform="translate(-519.555 -194.043)" fill="#fff"/><path d="M873.15,313.186V314.9h-1.456a3.744,3.744,0,0,1-2.69-.857,3.867,3.867,0,0,1-.89-2.871v-6.347H866.36v-1.692h1.755V300.2h1.973v2.937h3.041v1.692h-3.041v6.38a2.191,2.191,0,0,0,.417,1.555,2.02,2.02,0,0,0,1.445.417Z" transform="translate(-546.284 -189.292)" fill="#fff"/><path d="M900.668,302.287a5.288,5.288,0,0,1,1.264,3.805v6.839h-1.951v-6.65a3.772,3.772,0,0,0-.9-2.7,3.222,3.222,0,0,0-2.442-.942,3.325,3.325,0,0,0-2.586,1.042,4.3,4.3,0,0,0-.964,3.029v6.221H891.14V297.07h1.951v6.879a4.016,4.016,0,0,1,1.6-2.217,4.625,4.625,0,0,1,2.645-.768,4.4,4.4,0,0,1,3.336,1.323Z" transform="translate(-561.909 -187.318)" fill="#fff"/><path d="M938.223,314.189h-9.406a4.118,4.118,0,0,0,1.145,3.022,3.731,3.731,0,0,0,2.645,1,3.809,3.809,0,0,0,2.368-.717,2.955,2.955,0,0,0,1.167-1.906h2.08a4.91,4.91,0,0,1-2.871,3.694,6.4,6.4,0,0,1-2.656.536,6.026,6.026,0,0,1-3-.739A5.113,5.113,0,0,1,927.649,317a7.337,7.337,0,0,1,0-6.417,5.128,5.128,0,0,1,2.047-2.1,6.063,6.063,0,0,1,3-.739,5.94,5.94,0,0,1,2.989.739,5.05,5.05,0,0,1,1.951,1.951,5.542,5.542,0,0,1,.672,2.7A5.957,5.957,0,0,1,938.223,314.189Zm-2.313-3.129a3.158,3.158,0,0,0-1.352-1.308,4.116,4.116,0,0,0-1.847-.429,3.857,3.857,0,0,0-2.7,1,4.03,4.03,0,0,0-1.179,2.926h7.522a4.028,4.028,0,0,0-.443-2.187Z" transform="translate(-584.464 -194.044)" fill="#fff"/><path d="M979.936,298.212a2.513,2.513,0,0,0-.613,1.928v.321h2.786v1.714h-2.786v10.053h-1.947V302.18h-1.7v-1.714h1.7v-.473q0-4.219,4.733-4.027v1.714A3.159,3.159,0,0,0,979.936,298.212Z" transform="translate(-615.216 -186.617)" fill="#fff"/><path d="M1008.737,308.15v11.767h-1.951v-2.763a3.943,3.943,0,0,1-1.6,2.195,4.7,4.7,0,0,1-2.667.761,4.367,4.367,0,0,1-3.3-1.315,5.237,5.237,0,0,1-1.263-3.783V308.15h1.947v6.65a3.781,3.781,0,0,0,.9,2.708,3.2,3.2,0,0,0,2.442.953,3.325,3.325,0,0,0,2.586-1.038,4.3,4.3,0,0,0,.964-3.029V308.15Z" transform="translate(-629.265 -194.305)" fill="#fff"/><path d="M1039.2,313.186V314.9h-1.456a3.745,3.745,0,0,1-2.69-.857,3.867,3.867,0,0,1-.89-2.871v-6.347h-1.755v-1.692h1.755V300.2h1.973v2.937h3.041v1.692h-3.041v6.38a2.191,2.191,0,0,0,.417,1.555,2.02,2.02,0,0,0,1.445.417Z" transform="translate(-650.987 -189.292)" fill="#fff"/><path d="M1067.137,308.15v11.767h-1.951v-2.763a3.942,3.942,0,0,1-1.6,2.195,4.681,4.681,0,0,1-2.667.761,4.374,4.374,0,0,1-3.3-1.315,5.255,5.255,0,0,1-1.264-3.783V308.15h1.951v6.65a3.79,3.79,0,0,0,.9,2.708,3.206,3.206,0,0,0,2.446.953,3.325,3.325,0,0,0,2.586-1.038,4.315,4.315,0,0,0,.961-3.029V308.15Z" transform="translate(-666.089 -194.305)" fill="#fff"/><path d="M1097.643,308.3a5.058,5.058,0,0,1,2.656-.672v2.121h-.6a4.156,4.156,0,0,0-2.7.846,3.406,3.406,0,0,0-1.049,2.8v6.2H1094V307.819h1.951V310.2a4.315,4.315,0,0,1,1.692-1.9Z" transform="translate(-689.823 -193.974)" fill="#fff"/><path d="M1126.023,314.17h-9.406a4.118,4.118,0,0,0,1.145,3.022,3.732,3.732,0,0,0,2.645,1,3.809,3.809,0,0,0,2.368-.717,2.955,2.955,0,0,0,1.167-1.917h2.08a4.91,4.91,0,0,1-2.87,3.694,6.4,6.4,0,0,1-2.656.536,6.027,6.027,0,0,1-3-.739,5.113,5.113,0,0,1-2.047-2.087,7.336,7.336,0,0,1,0-6.417,5.128,5.128,0,0,1,2.047-2.1,6.062,6.062,0,0,1,3-.739,5.941,5.941,0,0,1,2.989.739,5.05,5.05,0,0,1,1.951,1.951,5.54,5.54,0,0,1,.672,2.7A5.967,5.967,0,0,1,1126.023,314.17Zm-2.313-3.129a3.16,3.16,0,0,0-1.352-1.308,4.116,4.116,0,0,0-1.847-.429,3.857,3.857,0,0,0-2.7,1,4.031,4.031,0,0,0-1.179,2.926h7.522A4.028,4.028,0,0,0,1123.71,311.04Z" transform="translate(-702.882 -194.025)" fill="#fff"/><path d="M1152.346,333.78v2.3H1150v-2.294Z" transform="translate(-725.134 -210.466)" fill="#fff"/><path d="M507.488,170.722h-6.724L473.72,129.566v41.156H467V118.63h6.724l27.044,41.23V118.63h6.724Z" transform="translate(-294.467 -74.802)" fill="#fff"/><path d="M631.239,150.942a18,18,0,0,1,7.241,7.241,24.649,24.649,0,0,1,0,22.13,18.047,18.047,0,0,1-7.241,7.2,23.013,23.013,0,0,1-20.911,0,18.251,18.251,0,0,1-7.278-7.2,24.343,24.343,0,0,1,0-22.13,18.2,18.2,0,0,1,7.278-7.241A23.013,23.013,0,0,1,631.239,150.942ZM614.1,155.967a12.192,12.192,0,0,0-4.951,4.988,19.115,19.115,0,0,0,0,16.551,12.191,12.191,0,0,0,4.951,4.988,14.567,14.567,0,0,0,13.374,0,12.214,12.214,0,0,0,4.951-4.988,19.115,19.115,0,0,0,0-16.551,12.214,12.214,0,0,0-4.951-4.988A14.567,14.567,0,0,0,614.1,155.967Z" transform="translate(-378.576 -93.593)" fill="#fff"/><path d="M795.675,152.57q4.319,4.544,4.323,13.115v23.571h-6.724v-22.98q0-5.985-2.922-9.162a10.38,10.38,0,0,0-8.013-3.188,11.02,11.02,0,0,0-8.538,3.51q-3.214,3.51-3.214,10.308v21.5h-6.72v-22.98q0-5.985-2.956-9.162a10.376,10.376,0,0,0-7.984-3.177,11.093,11.093,0,0,0-8.6,3.51q-3.211,3.51-3.218,10.308v21.5H734.38V148.691H741.1v9.236a13.179,13.179,0,0,1,5.283-7.352,16.494,16.494,0,0,1,17.734.074,14.273,14.273,0,0,1,5.431,7.721,14.656,14.656,0,0,1,5.693-7.648,15.713,15.713,0,0,1,9.011-2.7A14.97,14.97,0,0,1,795.675,152.57Z" transform="translate(-463.064 -93.336)" fill="#fff"/><path d="M963.425,151.381a15.4,15.4,0,0,1,5.726,7.906V148.942h6.731v40.565h-6.724V179.163a15.4,15.4,0,0,1-5.726,7.906,16.669,16.669,0,0,1-10.012,2.956,18.4,18.4,0,0,1-9.606-2.512,17.364,17.364,0,0,1-6.613-7.2,26.693,26.693,0,0,1,0-22.13,17.319,17.319,0,0,1,6.613-7.241,18.4,18.4,0,0,1,9.606-2.512A16.646,16.646,0,0,1,963.425,151.381ZM945.4,158.363q-3.731,3.949-3.731,10.9t3.731,10.9a13.04,13.04,0,0,0,9.938,3.953,13.814,13.814,0,0,0,7.13-1.847,12.834,12.834,0,0,0,4.914-5.209,16.469,16.469,0,0,0,1.773-7.8,16.683,16.683,0,0,0-1.773-7.832,12.561,12.561,0,0,0-4.914-5.209,14.006,14.006,0,0,0-7.13-1.81,13.023,13.023,0,0,0-9.938,3.953Z" transform="translate(-589.439 -93.588)" fill="#fff"/><path d="M1087.416,167.207v5.911h-5.024q-6.207,0-9.273-2.956t-3.066-9.9V138.39H1064v-5.837h6.059V122.43h6.8v10.123h10.492v5.837h-10.492v22.019q0,3.92,1.441,5.357t4.988,1.441Z" transform="translate(-670.907 -77.199)" fill="#fff"/><path d="M1147.637,107.575a5.4,5.4,0,0,1,6.65,0,4.193,4.193,0,0,1,0,5.985,5.4,5.4,0,0,1-6.65,0,4.193,4.193,0,0,1,0-5.985Zm6.65,14.889v40.565h-6.724V122.463Z" transform="translate(-722.852 -67.109)" fill="#fff"/><path d="M1205.53,183.228l12.561-33.4h7.241L1209.446,190.4h-7.98L1185.58,149.83h7.241Z" transform="translate(-747.569 -94.476)" fill="#fff"/><path d="M1344.594,170.671h-32.437q.222,6.946,3.953,10.418a12.9,12.9,0,0,0,9.125,3.473,13.188,13.188,0,0,0,8.165-2.475,10.249,10.249,0,0,0,4.027-6.613h7.167a16.936,16.936,0,0,1-9.9,12.709,21.927,21.927,0,0,1-9.162,1.847,20.875,20.875,0,0,1-10.344-2.512,17.733,17.733,0,0,1-7.056-7.2,25.289,25.289,0,0,1,0-22.13,17.68,17.68,0,0,1,7.056-7.241,20.941,20.941,0,0,1,10.345-2.512,20.42,20.42,0,0,1,10.307,2.512,17.3,17.3,0,0,1,6.724,6.724,18.925,18.925,0,0,1,2.328,9.31A20.124,20.124,0,0,1,1344.594,170.671Zm-7.98-10.788a10.818,10.818,0,0,0-4.655-4.507,14.172,14.172,0,0,0-6.428-1.478,13.305,13.305,0,0,0-9.31,3.436q-3.768,3.436-4.064,10.086h25.935A13.81,13.81,0,0,0,1336.614,159.883Z" transform="translate(-823.235 -93.593)" fill="#fff"/><path d="M1456.635,152.014a15.1,15.1,0,0,1,5.061,9.643h-6.428a9.309,9.309,0,0,0-2.993-5.948,9.745,9.745,0,0,0-6.835-2.328,8.423,8.423,0,0,0-5.652,1.736,5.869,5.869,0,0,0-2.032,4.692,4.844,4.844,0,0,0,1.367,3.584,8.747,8.747,0,0,0,3.4,2.069,56.526,56.526,0,0,0,5.579,1.515,55.235,55.235,0,0,1,7.278,2.106,11.393,11.393,0,0,1,4.729,3.436,9.662,9.662,0,0,1,1.958,6.354,9.975,9.975,0,0,1-3.731,8.054q-3.735,3.1-9.938,3.1-7.241,0-11.822-3.473a13.852,13.852,0,0,1-5.394-9.68h6.5a8.446,8.446,0,0,0,3.214,5.985,11.616,11.616,0,0,0,7.5,2.291,7.8,7.8,0,0,0,5.431-1.773,5.985,5.985,0,0,0,1.958-4.655,5.084,5.084,0,0,0-1.4-3.768,9.235,9.235,0,0,0-3.473-2.143,51.565,51.565,0,0,0-5.689-1.552,55.3,55.3,0,0,1-7.2-2.069,11.032,11.032,0,0,1-4.581-3.288,9.206,9.206,0,0,1-1.884-6.1,10.2,10.2,0,0,1,3.768-8.239q3.768-3.14,10.271-3.14Q1452.46,148.43,1456.635,152.014Z" transform="translate(-902.433 -93.593)" fill="#fff"/></g></g></svg>